HIERARCHY
ROOT Hips
{
  OFFSET 0.000000 0.000000 0.000000
  CHANNELS 6 Xposition Yposition Zposition Zrotation Yrotation Xrotation
  JOINT Spine
  {
    OFFSET -0.103929 2.016908 0.069201
    CHANNELS 3 Zrotation Yrotation Xrotation
    JOINT Spine1
    {
      OFFSET 0.040925 2.013020 -0.052834
      CHANNELS 3 Zrotation Yrotation Xrotation
      JOINT Spine2
      {
        OFFSET 0.091899 2.026089 -0.082763
        CHANNELS 3 Zrotation Yrotation Xrotation
        JOINT Neck
        {
          OFFSET -0.028700 1.589775 -0.031135
          CHANNELS 3 Zrotation Yrotation Xrotation
          JOINT Head
          {
            OFFSET 0.040559 1.599987 -0.095354
            CHANNELS 3 Zrotation Yrotation Xrotation
            End Site
            {
              OFFSET 0 0 0
            }
          }
        }
        JOINT LeftShoulder
        {
          OFFSET 3.306406 1.157636 0.011041
          CHANNELS 3 Zrotation Yrotation Xrotation
          JOINT LeftArm
          {
            OFFSET 4.632080 -0.000000 0.000000
            CHANNELS 3 Zrotation Yrotation Xrotation
            JOINT LeftForeArm
            {
              OFFSET 3.419240 -0.000000 -0.000000
              CHANNELS 3 Zrotation Yrotation Xrotation
              JOINT LeftHand
              {
                OFFSET 0.625370 -0.000000 -0.000000
                CHANNELS 3 Zrotation Yrotation Xrotation
                JOINT LeftHandIndex1
                {
                  OFFSET 0.504190 -0.000000 -0.000000
                  CHANNELS 3 Zrotation Yrotation Xrotation
                  End Site
                  {
                    OFFSET 0 0 0
                  }
                }
              }
            }
          }
        }
        JOINT RightShoulder
        {
          OFFSET -3.780807 1.021795 -0.166087
          CHANNELS 3 Zrotation Yrotation Xrotation
          JOINT RightArm
          {
            OFFSET -4.406400 -0.000000 -0.000000
            CHANNELS 3 Zrotation Yrotation Xrotation
            JOINT RightForeArm
            {
              OFFSET -3.446750 -0.000000 0.000000
              CHANNELS 3 Zrotation Yrotation Xrotation
              JOINT RightHand
              {
                OFFSET -0.513674 -0.000000 -0.000000
                CHANNELS 3 Zrotation Yrotation Xrotation
                JOINT RightHandIndex1
                {
                  OFFSET -0.414137 -0.000000 -0.000000
                  CHANNELS 3 Zrotation Yrotation Xrotation
                  End Site
                  {
                    OFFSET 0 0 0
                  }
                }
              }
            }
          }
        }
      }
    }
  }
  JOINT LeftUpLeg
  {
    OFFSET 2.201029 -6.047282 0.000000
    CHANNELS 3 Zrotation Yrotation Xrotation
    JOINT LeftLeg
    {
      OFFSET 2.541540 -6.982830 0.000000
      CHANNELS 3 Zrotation Yrotation Xrotation
      JOINT LeftFoot
      {
        OFFSET 0.059715 -0.164065 1.775819
        CHANNELS 3 Zrotation Yrotation Xrotation
        JOINT LeftToeBase
        {
          OFFSET 0.000000 -0.000000 0.908320
          CHANNELS 3 Zrotation Yrotation Xrotation
          End Site
          {
            OFFSET 0 0 0
          }
        }
      }
    }
  }
  JOINT RightUpLeg
  {
    OFFSET -2.269262 -6.234750 0.000000
    CHANNELS 3 Zrotation Yrotation Xrotation
    JOINT RightLeg
    {
      OFFSET -2.348077 -6.451293 0.000000
      CHANNELS 3 Zrotation Yrotation Xrotation
      JOINT RightFoot
      {
        OFFSET -0.186335 -0.511953 1.685391
        CHANNELS 3 Zrotation Yrotation Xrotation
        JOINT RightToeBase
        {
          OFFSET -0.000000 -0.000000 0.889273
          CHANNELS 3 Zrotation Yrotation Xrotation
          End Site
          {
            OFFSET 0 0 0
          }
        }
      }
    }
  }
}
MOTION
Frames: 11
Frame Time: 0.00833333
9.198290 16.641900 24.728300 179.356000 0.361532 -168.139000 -20.868400 -8.005800 -9.274280 0.000000 0.000000 8.830170 5.308340 0.000000 -14.775900 0.000000 0.000000 -58.065100 19.194700 1.681140 -8.864780 0.000000 0.000000 7.982600 -2.177090 0.000000 -10.850500 0.000000 0.000000 -15.502400 -6.833810 1.482810 -9.179690 1.171010 2.683490 0.112035 5.432890 1.158740 4.907380 -4.547260 -0.332076 -6.894670 2.781480 -2.701940 10.447500 0.000000 0.000000 0.000000 86.688600 6.670180 -29.162100 0.000000 0.000000 17.940400 -17.972700 0.000000 -25.261800 0.000000 0.000000 7.125020 0.000000 0.000000 0.000000 -68.824700 -32.213300 -43.386300 0.000000 0.000000 25.815200 -40.058400 0.000000 -20.088600 0.000000 0.000000 7.125020
9.191340 16.641100 24.723900 179.289000 0.332147 -168.124000 -20.978200 -8.070740 -9.376620 0.000000 0.000000 8.989460 5.275140 0.000000 -14.888300 0.000000 0.000000 -58.091700 19.067400 1.843780 -8.855650 0.000000 0.000000 7.899430 -2.154870 0.000000 -11.063100 0.000000 0.000000 -15.032100 -6.831350 1.426020 -9.292600 1.155890 2.617410 0.126920 5.413360 1.122150 4.996980 -4.592800 -0.323074 -6.784680 2.791060 -2.703240 10.405900 0.000000 -0.000000 0.000000 87.228400 5.831710 -29.159400 0.000000 0.000000 18.596700 -19.360500 0.000000 -24.956100 0.000000 0.000000 7.125020 0.000000 -0.000000 0.000000 -68.927400 -32.282700 -43.170200 0.000000 0.000000 25.786800 -39.716400 0.000000 -19.329300 0.000000 0.000000 7.125020
9.185500 16.641100 24.720500 179.244000 0.281559 -168.090000 -21.052300 -8.124910 -9.527850 0.000000 0.000000 9.209140 5.199050 0.000000 -14.996900 0.000000 0.000000 -58.531700 18.994800 1.889520 -8.879580 0.000000 0.000000 7.911390 -2.125760 0.000000 -11.368600 0.000000 0.000000 -16.090800 -6.833900 1.373980 -9.389060 1.150510 2.556460 0.128322 5.406220 1.089480 5.061670 -4.573720 -0.308579 -6.761770 2.773770 -2.694130 10.396700 0.000000 -0.000000 0.000000 87.710300 5.121720 -29.061700 0.000000 0.000000 19.095900 -20.031700 0.000000 -24.779200 0.000000 0.000000 7.125020 0.000000 -0.000000 0.000000 -69.098900 -32.268000 -42.944200 0.000000 0.000000 25.795400 -39.528000 0.000000 -18.924600 0.000000 0.000000 7.125020
9.180690 16.640100 24.715500 179.310000 0.276561 -168.072000 -20.984400 -8.041290 -9.637130 0.000000 0.000000 9.416420 4.849020 0.000000 -15.137900 0.000000 0.000000 -57.806200 19.073500 1.922340 -8.899270 0.000000 0.000000 7.964950 -2.012420 0.000000 -11.826200 0.000000 0.000000 -17.778400 -6.741680 1.383970 -9.503140 1.166170 2.567710 0.145513 5.377730 1.093210 5.145580 -4.541980 -0.324130 -6.756740 2.757110 -2.696900 10.383700 0.000000 -0.000000 0.000000 88.212700 4.350740 -28.896900 0.000000 0.000000 19.525600 -19.491100 0.000000 -24.770000 0.000000 0.000000 7.125020 0.000000 -0.000000 0.000000 -69.275500 -32.262800 -42.737500 0.000000 0.000000 25.766800 -39.386600 0.000000 -18.771800 0.000000 0.000000 7.125020
9.176760 16.637600 24.711200 179.424000 0.321898 -168.072000 -20.830600 -7.675240 -9.442280 0.000000 0.000000 9.060350 4.042420 0.000000 -15.002100 0.000000 0.000000 -55.483000 19.207800 2.001430 -8.914230 0.000000 0.000000 8.007860 -2.008840 0.000000 -12.697900 0.000000 0.000000 -18.329700 -6.598090 1.425840 -9.581260 1.181920 2.612650 0.145842 5.322350 1.117330 5.188810 -4.350670 -0.234538 -7.099240 2.704370 -2.619620 10.515300 -0.000000 0.000000 0.000000 88.578900 3.838670 -28.731400 0.000000 0.000000 19.817000 -19.001400 0.000000 -24.889500 0.000000 0.000000 7.125020 -0.000000 0.000000 0.000000 -69.348200 -32.322200 -42.639400 0.000000 0.000000 25.704700 -38.261500 0.000000 -18.643100 0.000000 0.000000 7.125020
9.173230 16.635600 24.709000 179.465000 0.343562 -168.085000 -20.760000 -7.266790 -8.909030 0.000000 0.000000 8.054080 3.320600 0.000000 -14.509100 0.000000 0.000000 -53.582600 19.242100 2.071300 -8.900250 0.000000 0.000000 8.024180 -1.740580 0.000000 -14.105400 0.000000 0.000000 -17.335100 -6.550410 1.430570 -9.611230 1.203210 2.614750 0.147552 5.319650 1.118560 5.208200 -3.769370 0.091826 -8.214850 2.522600 -2.350890 10.954500 0.000000 -0.000000 0.000000 88.830300 3.640980 -28.492900 0.000000 0.000000 19.908900 -19.217900 0.000000 -25.069200 0.000000 0.000000 7.125020 0.000000 -0.000000 0.000000 -69.408100 -32.337700 -42.529700 0.000000 0.000000 25.651000 -36.633400 0.000000 -18.870100 0.000000 0.000000 7.125020
9.169160 16.634100 24.704600 179.486000 0.334700 -168.122000 -20.750600 -7.129690 -8.550800 0.000000 0.000000 7.465490 3.170700 0.000000 -14.238800 0.000000 0.000000 -53.301300 19.246800 2.136200 -8.834010 0.000000 0.000000 8.019680 -1.712530 0.000000 -14.353900 0.000000 0.000000 -15.091100 -6.506830 1.467000 -9.658000 1.197320 2.662040 0.174469 5.297710 1.140030 5.258600 -3.893150 0.068402 -8.195520 2.616380 -2.377820 10.953200 -0.000000 0.000000 0.000000 89.089600 3.222190 -28.208800 0.000000 0.000000 19.947500 -19.664900 0.000000 -25.250800 0.000000 0.000000 7.125020 -0.000000 0.000000 0.000000 -69.646600 -32.253300 -42.411400 0.000000 0.000000 25.634100 -36.982100 0.000000 -18.506400 0.000000 0.000000 7.125020
9.164990 16.632500 24.699800 179.586000 0.319192 -168.123000 -20.646600 -7.161160 -8.522790 0.000000 0.000000 7.461560 3.153270 0.000000 -14.279300 0.000000 0.000000 -53.111200 19.349200 2.180440 -8.829010 0.000000 0.000000 8.037490 -1.731260 0.000000 -14.380800 0.000000 0.000000 -15.302300 -6.368820 1.511350 -9.702550 1.199960 2.708940 0.146387 5.229610 1.168370 5.253360 -3.709880 0.064782 -8.235250 2.541860 -2.384390 10.991700 -0.000000 0.000000 0.000000 89.347600 2.664950 -28.095800 0.000000 0.000000 20.187500 -19.682100 0.000000 -25.206500 0.000000 0.000000 7.125020 -0.000000 0.000000 0.000000 -69.910500 -32.089000 -42.390300 0.000000 0.000000 25.581000 -38.649000 0.000000 -16.705500 0.000000 0.000000 7.125020
9.161680 16.630900 24.696700 179.652000 0.326950 -168.097000 -20.565200 -7.195590 -8.555050 0.000000 0.000000 7.509640 3.053080 0.000000 -14.352900 0.000000 0.000000 -52.641800 19.416200 2.199650 -8.870940 0.000000 0.000000 8.065940 -1.784410 0.000000 -14.348500 0.000000 0.000000 -15.167300 -6.304140 1.499580 -9.740830 1.244510 2.686990 0.099373 5.237890 1.161870 5.228840 -3.637980 0.111783 -8.290880 2.498980 -2.359720 11.036200 0.000000 -0.000000 0.000000 89.565900 2.388880 -28.079300 0.000000 0.000000 20.551800 -19.248300 0.000000 -24.900200 0.000000 0.000000 7.125020 0.000000 -0.000000 0.000000 -69.913200 -32.041600 -42.398500 0.000000 0.000000 25.575500 -39.142900 0.000000 -15.942600 0.000000 0.000000 7.125020
9.158160 16.629700 24.693300 179.599000 0.338001 -168.112000 -20.647200 -7.225420 -8.532480 0.000000 0.000000 7.527720 2.989990 0.000000 -14.394800 0.000000 0.000000 -52.342600 19.345100 2.141010 -8.856950 0.000000 0.000000 8.096750 -1.829890 0.000000 -14.342800 0.000000 0.000000 -15.292400 -6.335320 1.505490 -9.770330 1.241480 2.700780 0.100594 5.255580 1.167320 5.243720 -3.693150 0.102496 -8.289820 2.521630 -2.367150 11.036300 -0.000000 0.000000 0.000000 89.712800 2.224560 -27.984100 0.000000 0.000000 20.788300 -18.940000 0.000000 -24.640500 0.000000 0.000000 7.125020 -0.000000 0.000000 0.000000 -69.789800 -32.205700 -42.405400 0.000000 0.000000 25.623000 -39.128800 0.000000 -17.148200 0.000000 0.000000 7.125020
9.154210 16.630000 24.691000 179.529000 0.293427 -168.144000 -20.767600 -7.241520 -8.510010 0.000000 0.000000 7.561480 2.962190 0.000000 -14.379600 0.000000 0.000000 -52.381100 19.247400 1.995250 -8.811830 0.000000 0.000000 8.115670 -1.868430 0.000000 -14.391900 0.000000 0.000000 -16.557400 -6.346820 1.521200 -9.742630 1.202460 2.723030 0.097490 5.222100 1.179350 5.223210 -3.711830 0.047877 -8.254500 2.532980 -2.402770 11.018300 0.000000 0.000000 0.000000 89.848300 1.905260 -27.918400 0.000000 0.000000 20.990700 -18.787600 0.000000 -24.639600 0.000000 0.000000 7.125020 0.000000 0.000000 0.000000 -69.874100 -32.228600 -42.367200 0.000000 0.000000 25.470800 -38.071900 0.000000 -19.356200 0.000000 0.000000 7.125020
